<svg xmlns="http://www.w3.org/2000/svg" width="78" height="78" viewBox="0 0 78 78"><g transform="translate(-617 -959)"><g transform="translate(617 959)"><rect width="78" height="78" rx="39" fill="#666"/></g><g transform="translate(671.137 1013.418) rotate(180)"><path d="M31.767,47.179l-.5-.5a.836.836,0,0,0-1.186,0L17.634,59.2V32.841A.842.842,0,0,0,16.8,32h-.7a.842.842,0,0,0-.838.841V59.2L2.8,46.681a.836.836,0,0,0-1.186,0l-.5.5a.845.845,0,0,0,0,1.192l14.726,14.8a.836.836,0,0,0,1.186,0l14.726-14.8A.839.839,0,0,0,31.767,47.179Z" transform="translate(-0.875 -32)" fill="#fff"/></g></g></svg>