<svg xmlns="http://www.w3.org/2000/svg" width="93.118" height="99.32" viewBox="0 0 93.118 99.32"><g transform="translate(-16 0.005)"><path d="M103.395,16.228,66.148.708a9.341,9.341,0,0,0-7.158,0L21.742,16.228A9.312,9.312,0,0,0,16,24.827C16,63.335,38.212,89.95,58.97,98.6a9.341,9.341,0,0,0,7.158,0c16.625-6.928,42.989-30.849,42.989-73.775A9.312,9.312,0,0,0,103.395,16.228ZM94.238,38.384l-35.7,35.7a3.116,3.116,0,0,1-4.384,0L33.983,53.9a3.118,3.118,0,0,1,0-4.386l4.384-4.384a3.118,3.118,0,0,1,4.384,0l13.6,13.6L85.47,29.613a3.118,3.118,0,0,1,4.384,0L94.238,34a3.083,3.083,0,0,1,0,4.386Z" transform="translate(0 0)" fill="#fff" opacity="0.4"/><path d="M165.208,157.7l-35.7,35.7a3.116,3.116,0,0,1-4.384,0l-20.176-20.176a3.118,3.118,0,0,1,0-4.386l4.384-4.384a3.117,3.117,0,0,1,4.384,0l13.6,13.6,29.119-29.119a3.118,3.118,0,0,1,4.384,0l4.384,4.384a3.082,3.082,0,0,1,0,4.386Z" transform="translate(-70.97 -119.314)" fill="#fff"/></g></svg>