<svg xmlns="http://www.w3.org/2000/svg" viewBox="0 0 496 496"><defs><style>.cls-1,.cls-2{fill:#fff;}.cls-1{opacity:0.4;isolation:isolate;}.cls-3{fill:none;stroke:#fff;stroke-linecap:round;stroke-miterlimit:10;stroke-width:34px;}</style></defs><title>icon-simpel</title><g id="Laag_2" data-name="Laag 2"><g id="Layer_1" data-name="Layer 1"><path class="cls-1" d="M248,0C111,0,0,111,0,248S111,496,248,496,496,385,496,248,385,0,248,0Zm80,168a32,32,0,1,1-32,32A32,32,0,0,1,328,168Zm-160,0a32,32,0,1,1-32,32A32,32,0,0,1,168,168ZM362.8,338.2a149.38,149.38,0,0,1-229.6,0c-13.6-16.3,11-36.7,24.6-20.5a117.5,117.5,0,0,0,180.4,0C351.6,301.5,376.3,321.9,362.8,338.2Z"/><path class="cls-2" d="M328,168a32,32,0,1,0,32,32A32,32,0,0,0,328,168Zm-160,0a32,32,0,1,0,32,32A32,32,0,0,0,168,168Z"/><path class="cls-3" d="M144,326.39a126.79,126.79,0,0,0,46.65,37.43c52.7,24.57,104,4,111,1A135,135,0,0,0,354,325.5"/></g></g></svg>