<svg xmlns="http://www.w3.org/2000/svg" width="99.552" height="99.552" viewBox="0 0 99.552 99.552"><g transform="translate(-8 -8)"><path d="M57.776,8a49.776,49.776,0,1,0,49.776,49.776A49.767,49.767,0,0,0,57.776,8ZM79.9,42.068,60.644,83.794a4.865,4.865,0,0,1-9.309-1.925V64.207H33.691A4.865,4.865,0,0,1,31.766,54.9L73.491,35.64C77.335,34.044,81.508,38.217,79.9,42.068Z" transform="translate(0 0)" fill="#fff" opacity="0.4"/><path d="M114.875,163.6,156.6,144.344a5.01,5.01,0,0,1,6.423,6.423l-19.26,41.723a4.865,4.865,0,0,1-9.309-1.925V172.9H116.81a4.86,4.86,0,0,1-1.935-9.3Z" transform="translate(-83.119 -108.697)" fill="#fff"/></g></svg>