<svg xmlns="http://www.w3.org/2000/svg" width="76.299" height="77.53" viewBox="0 0 76.299 77.53"><g transform="translate(-8 0)"><path d="M224.614,0a3.683,3.683,0,0,1,3.692,3.692V40.611a3.683,3.683,0,0,1-3.692,3.692h-4.923A3.683,3.683,0,0,1,216,40.611V3.692A3.683,3.683,0,0,1,219.692,0Z" transform="translate(-176.004 0)" fill="#fff" opacity="0.4"/><path d="M84.3,81.413A38.149,38.149,0,1,1,23.967,50.37a3.7,3.7,0,0,1,5.384,1.184l2.43,4.323a3.692,3.692,0,0,1-1.015,4.769,25.841,25.841,0,1,0,30.75-.015,3.67,3.67,0,0,1-1-4.753l2.43-4.323a3.692,3.692,0,0,1,5.353-1.2A38.074,38.074,0,0,1,84.3,81.413Z" transform="translate(0 -42.033)" fill="#fff"/></g></svg>