<svg xmlns="http://www.w3.org/2000/svg" width="67.838" height="77.529" viewBox="0 0 67.838 77.529"><path d="M115.382,96a19.382,19.382,0,1,0,19.382,19.382A19.382,19.382,0,0,0,115.382,96Zm0,12.114a7.276,7.276,0,0,0-7.268,7.268,2.423,2.423,0,1,1-4.846,0,12.128,12.128,0,0,1,12.114-12.114,2.423,2.423,0,1,1,0,4.846Z" transform="translate(-81.463 -81.463)" fill="#fff" opacity="0.4"/><path d="M60.721,66.415l-7.449-4.656a33.922,33.922,0,1,0-38.7,0L7.117,66.415a4.846,4.846,0,0,0-2.271,4.11v2.159a4.846,4.846,0,0,0,4.846,4.846H58.147a4.846,4.846,0,0,0,4.846-4.846V70.524A4.846,4.846,0,0,0,60.721,66.415Zm-26.8-8.268A24.228,24.228,0,1,1,58.147,33.919,24.228,24.228,0,0,1,33.919,58.147Z" fill="#fff"/></svg>