<svg xmlns="http://www.w3.org/2000/svg" width="99.347" height="74.51" viewBox="0 0 99.347 74.51"><g transform="translate(0 -64)"><path d="M0,77V73.314A9.314,9.314,0,0,1,9.314,64h80.72a9.314,9.314,0,0,1,9.314,9.314V77a4.643,4.643,0,0,1-1.785,3.667c-5.938,4.657-7.9,6.287-33.646,24.973-3.26,2.367-9.741,8.111-14.242,8.033-4.5.078-10.983-5.666-14.242-8.033C9.682,86.955,7.723,85.305,1.785,80.668A4.672,4.672,0,0,1,0,77Z" fill="#fff" opacity="0.4"/><path d="M0,230.364V190.7a1.164,1.164,0,0,1,1.882-.912c4.346,3.376,10.109,7.664,29.9,22.043,4.094,2.988,11,9.275,17.89,9.236,6.927.058,13.971-6.364,17.91-9.236,19.792-14.378,25.535-18.686,29.882-22.062a1.164,1.164,0,0,1,1.882.912v39.681a9.314,9.314,0,0,1-9.314,9.314H9.314A9.314,9.314,0,0,1,0,230.364Z" transform="translate(0 -101.167)" fill="#fff"/></g></svg>