<svg xmlns="http://www.w3.org/2000/svg" width="97.437" height="77.95" viewBox="0 0 97.437 77.95"><path d="M19.487,9.744H68.206v4.872H77.95V7.308A7.323,7.323,0,0,0,70.656,0H17.038A7.323,7.323,0,0,0,9.744,7.308V43.847H2.436A2.436,2.436,0,0,0,0,46.283v2.436a9.765,9.765,0,0,0,9.73,9.744H53.59V43.847h-34.1Z" transform="translate(0)" fill="#fff" opacity="0.4"/><path d="M417.494,128H389.481A5.481,5.481,0,0,0,384,133.481v47.5a5.481,5.481,0,0,0,5.481,5.481h28.013a5.481,5.481,0,0,0,5.481-5.481v-47.5A5.481,5.481,0,0,0,417.494,128Zm-4.263,48.719H393.744V137.744h19.487Z" transform="translate(-325.538 -108.513)" fill="#fff"/></svg>