<svg xmlns="http://www.w3.org/2000/svg" width="99.556" height="99.554" viewBox="0 0 99.556 99.554"><g transform="translate(-0.001)"><path d="M98.719,21.258a2.333,2.333,0,0,0-3.908-1.069L80.346,34.652l-13.2-2.2-2.2-13.2L79.413,4.793A2.346,2.346,0,0,0,78.3.866,28.009,28.009,0,0,0,51.746,8.233a27.546,27.546,0,0,0-8.01,20.139L59.7,44.333a21.184,21.184,0,0,1,4.8-.564A20.457,20.457,0,0,1,79.063,49.8l3.772,3.771a27.521,27.521,0,0,0,8.516-5.735,27.954,27.954,0,0,0,7.369-26.574ZM44.3,59.71,33.276,48.687,3.646,78.333a12.442,12.442,0,1,0,17.6,17.594L45.272,71.9A20.952,20.952,0,0,1,44.3,59.71ZM12.453,91.785a4.666,4.666,0,1,1,4.666-4.666,4.666,4.666,0,0,1-4.666,4.666Z" transform="translate(0 -0.016)" fill="#fff" opacity="0.4"/><path d="M97.446,76.933a7.265,7.265,0,0,1,0,10.246L87.2,97.425a7.225,7.225,0,0,1-10.243,0L54.2,74.658a14.471,14.471,0,0,1-2.7-16.6L30.779,37.329H18.709L.05,12.443,12.489,0,37.368,18.665V30.738L58.087,51.464a14.428,14.428,0,0,1,16.6,2.7Z" transform="translate(-0.022)" fill="#fff"/></g></svg>