<svg xmlns="http://www.w3.org/2000/svg" width="99.222" height="99.222" viewBox="0 0 99.222 99.222"><g transform="translate(-8 -8)"><path d="M57.611,8a49.611,49.611,0,1,0,49.611,49.611A49.6,49.6,0,0,0,57.611,8Zm16,33.607a6.4,6.4,0,1,1-6.4,6.4A6.4,6.4,0,0,1,73.615,41.607Zm-32.007,0a6.4,6.4,0,1,1-6.4,6.4A6.4,6.4,0,0,1,41.607,41.607ZM80.576,75.655a29.883,29.883,0,0,1-45.93,0c-2.721-3.261,2.2-7.342,4.921-4.1a23.505,23.505,0,0,0,36.088,0C78.336,68.313,83.277,72.394,80.576,75.655Z" transform="translate(0 0)" fill="#fff" opacity="0.4"/><path d="M182.408,176a6.4,6.4,0,1,0,6.4,6.4A6.4,6.4,0,0,0,182.408,176ZM150.4,176a6.4,6.4,0,1,0,6.4,6.4A6.4,6.4,0,0,0,150.4,176Z" transform="translate(-108.794 -134.393)" fill="#fff"/></g></svg>