<svg xmlns="http://www.w3.org/2000/svg" xmlns:xlink="http://www.w3.org/1999/xlink" width="74" height="74" viewBox="0 0 74 74"><defs><clipPath id="a"><rect width="74" height="74" transform="translate(103.035 169.07)" fill="#fff"/></clipPath></defs><g transform="translate(-103.035 -169.07)" clip-path="url(#a)"><g transform="translate(103 176.407)"><path d="M14.814,7.407H51.849v3.7h7.407V5.555A5.567,5.567,0,0,0,53.711,0H12.952A5.567,5.567,0,0,0,7.407,5.555V33.331H1.852A1.852,1.852,0,0,0,0,35.183v1.852a7.423,7.423,0,0,0,7.4,7.407H40.738V33.331H14.814Z" fill="#fff" opacity="0.4"/><path d="M127.462,34h-21.3A4.166,4.166,0,0,0,102,38.166V74.275a4.166,4.166,0,0,0,4.166,4.166h21.3a4.166,4.166,0,0,0,4.166-4.166V38.166A4.166,4.166,0,0,0,127.462,34Zm-3.241,37.035H109.407V41.407h14.814Z" transform="translate(-57.558 -19.186)" fill="#fff"/></g></g></svg>